<mxfile host="Electron" agent="Mozilla/5.0 (Windows NT 10.0; Win64; x64) AppleWebKit/537.36 (KHTML, like Gecko) draw.io/26.0.16 Chrome/132.0.6834.196 Electron/34.2.0 Safari/537.36" version="26.0.16">
  <diagram name="Page-1" id="DXdzLVKKX74UFcC71-x3">
    <mxGraphModel dx="1434" dy="884" grid="1" gridSize="10" guides="1" tooltips="1" connect="1" arrows="1" fold="1" page="1" pageScale="1" pageWidth="827" pageHeight="1169" math="0" shadow="0">
      <root>
        <mxCell id="0" />
        <mxCell id="1" parent="0" />
        <mxCell id="vplq1tkEMpHksFh4a3WS-12" value="&lt;h1&gt;&lt;br&gt;&lt;/h1&gt;" style="rounded=0;whiteSpace=wrap;html=1;align=center;fillColor=#d5e8d4;strokeColor=#82b366;" vertex="1" parent="1">
          <mxGeometry x="160" y="160" width="620" height="760" as="geometry" />
        </mxCell>
        <mxCell id="vplq1tkEMpHksFh4a3WS-13" value="EcoRide" style="text;strokeColor=default;fillColor=none;html=1;fontSize=24;fontStyle=1;verticalAlign=middle;align=center;rounded=1;strokeWidth=2;" vertex="1" parent="1">
          <mxGeometry x="490" y="170" width="100" height="40" as="geometry" />
        </mxCell>
        <mxCell id="vplq1tkEMpHksFh4a3WS-48" style="rounded=0;orthogonalLoop=1;jettySize=auto;html=1;endArrow=none;startFill=0;" edge="1" parent="1" source="vplq1tkEMpHksFh4a3WS-14" target="vplq1tkEMpHksFh4a3WS-47">
          <mxGeometry relative="1" as="geometry" />
        </mxCell>
        <mxCell id="vplq1tkEMpHksFh4a3WS-50" style="rounded=0;orthogonalLoop=1;jettySize=auto;html=1;endArrow=none;startFill=0;" edge="1" parent="1" source="vplq1tkEMpHksFh4a3WS-14" target="vplq1tkEMpHksFh4a3WS-49">
          <mxGeometry relative="1" as="geometry" />
        </mxCell>
        <mxCell id="vplq1tkEMpHksFh4a3WS-14" value="Administrateur" style="shape=umlActor;verticalLabelPosition=bottom;verticalAlign=top;html=1;outlineConnect=0;" vertex="1" parent="1">
          <mxGeometry x="70" y="730" width="30" height="60" as="geometry" />
        </mxCell>
        <mxCell id="vplq1tkEMpHksFh4a3WS-26" style="rounded=0;orthogonalLoop=1;jettySize=auto;html=1;entryX=0;entryY=0.5;entryDx=0;entryDy=0;endArrow=none;startFill=0;" edge="1" parent="1" source="vplq1tkEMpHksFh4a3WS-15" target="vplq1tkEMpHksFh4a3WS-21">
          <mxGeometry relative="1" as="geometry" />
        </mxCell>
        <mxCell id="vplq1tkEMpHksFh4a3WS-27" style="rounded=0;orthogonalLoop=1;jettySize=auto;html=1;endArrow=none;startFill=0;" edge="1" parent="1" source="vplq1tkEMpHksFh4a3WS-15" target="vplq1tkEMpHksFh4a3WS-22">
          <mxGeometry relative="1" as="geometry" />
        </mxCell>
        <mxCell id="vplq1tkEMpHksFh4a3WS-29" style="rounded=0;orthogonalLoop=1;jettySize=auto;html=1;endArrow=none;startFill=0;" edge="1" parent="1" source="vplq1tkEMpHksFh4a3WS-15" target="vplq1tkEMpHksFh4a3WS-24">
          <mxGeometry relative="1" as="geometry" />
        </mxCell>
        <mxCell id="vplq1tkEMpHksFh4a3WS-30" style="rounded=0;orthogonalLoop=1;jettySize=auto;html=1;endArrow=none;startFill=0;" edge="1" parent="1" source="vplq1tkEMpHksFh4a3WS-15" target="vplq1tkEMpHksFh4a3WS-23">
          <mxGeometry relative="1" as="geometry" />
        </mxCell>
        <mxCell id="vplq1tkEMpHksFh4a3WS-15" value="Visiteur" style="shape=umlActor;verticalLabelPosition=bottom;verticalAlign=top;html=1;outlineConnect=0;" vertex="1" parent="1">
          <mxGeometry x="30" y="340" width="30" height="60" as="geometry" />
        </mxCell>
        <mxCell id="vplq1tkEMpHksFh4a3WS-32" style="rounded=0;orthogonalLoop=1;jettySize=auto;html=1;endArrow=none;startFill=0;" edge="1" parent="1" source="vplq1tkEMpHksFh4a3WS-17" target="vplq1tkEMpHksFh4a3WS-23">
          <mxGeometry relative="1" as="geometry" />
        </mxCell>
        <mxCell id="vplq1tkEMpHksFh4a3WS-35" style="rounded=0;orthogonalLoop=1;jettySize=auto;html=1;endArrow=none;startFill=0;" edge="1" parent="1" source="vplq1tkEMpHksFh4a3WS-17" target="vplq1tkEMpHksFh4a3WS-33">
          <mxGeometry relative="1" as="geometry" />
        </mxCell>
        <mxCell id="vplq1tkEMpHksFh4a3WS-17" value="Utilisateur" style="shape=umlActor;verticalLabelPosition=bottom;verticalAlign=top;html=1;outlineConnect=0;" vertex="1" parent="1">
          <mxGeometry x="1020" y="525" width="30" height="60" as="geometry" />
        </mxCell>
        <mxCell id="vplq1tkEMpHksFh4a3WS-46" style="rounded=0;orthogonalLoop=1;jettySize=auto;html=1;endArrow=none;startFill=0;" edge="1" parent="1" source="vplq1tkEMpHksFh4a3WS-18" target="vplq1tkEMpHksFh4a3WS-44">
          <mxGeometry relative="1" as="geometry" />
        </mxCell>
        <mxCell id="vplq1tkEMpHksFh4a3WS-52" style="rounded=0;orthogonalLoop=1;jettySize=auto;html=1;endArrow=none;startFill=0;" edge="1" parent="1" source="vplq1tkEMpHksFh4a3WS-18" target="vplq1tkEMpHksFh4a3WS-51">
          <mxGeometry relative="1" as="geometry" />
        </mxCell>
        <mxCell id="vplq1tkEMpHksFh4a3WS-18" value="Employé" style="shape=umlActor;verticalLabelPosition=bottom;verticalAlign=top;html=1;outlineConnect=0;" vertex="1" parent="1">
          <mxGeometry x="80" y="550" width="30" height="60" as="geometry" />
        </mxCell>
        <mxCell id="vplq1tkEMpHksFh4a3WS-19" value="Inscription" style="ellipse;whiteSpace=wrap;html=1;" vertex="1" parent="1">
          <mxGeometry x="170" y="160" width="120" height="80" as="geometry" />
        </mxCell>
        <mxCell id="vplq1tkEMpHksFh4a3WS-20" style="rounded=0;orthogonalLoop=1;jettySize=auto;html=1;entryX=0.083;entryY=0.375;entryDx=0;entryDy=0;entryPerimeter=0;endArrow=none;startFill=0;" edge="1" parent="1" source="vplq1tkEMpHksFh4a3WS-15" target="vplq1tkEMpHksFh4a3WS-19">
          <mxGeometry relative="1" as="geometry" />
        </mxCell>
        <mxCell id="vplq1tkEMpHksFh4a3WS-21" value="Page d&#39;accueil" style="ellipse;whiteSpace=wrap;html=1;" vertex="1" parent="1">
          <mxGeometry x="230" y="240" width="120" height="80" as="geometry" />
        </mxCell>
        <mxCell id="vplq1tkEMpHksFh4a3WS-22" value="Menu d&#39;application" style="ellipse;whiteSpace=wrap;html=1;" vertex="1" parent="1">
          <mxGeometry x="340" y="310" width="120" height="80" as="geometry" />
        </mxCell>
        <mxCell id="vplq1tkEMpHksFh4a3WS-23" value="Détails covoiturage" style="ellipse;whiteSpace=wrap;html=1;" vertex="1" parent="1">
          <mxGeometry x="630" y="370" width="120" height="80" as="geometry" />
        </mxCell>
        <mxCell id="vplq1tkEMpHksFh4a3WS-24" value="Filtrer les covoiturages" style="ellipse;whiteSpace=wrap;html=1;" vertex="1" parent="1">
          <mxGeometry x="360" y="445" width="120" height="80" as="geometry" />
        </mxCell>
        <mxCell id="vplq1tkEMpHksFh4a3WS-25" value="Vue des covoiturages" style="ellipse;whiteSpace=wrap;html=1;" vertex="1" parent="1">
          <mxGeometry x="190" y="445" width="120" height="80" as="geometry" />
        </mxCell>
        <mxCell id="vplq1tkEMpHksFh4a3WS-28" style="rounded=0;orthogonalLoop=1;jettySize=auto;html=1;entryX=0.033;entryY=0.625;entryDx=0;entryDy=0;entryPerimeter=0;endArrow=none;startFill=0;" edge="1" parent="1" source="vplq1tkEMpHksFh4a3WS-15" target="vplq1tkEMpHksFh4a3WS-25">
          <mxGeometry relative="1" as="geometry" />
        </mxCell>
        <mxCell id="vplq1tkEMpHksFh4a3WS-33" value="Participer covoiturage" style="ellipse;whiteSpace=wrap;html=1;" vertex="1" parent="1">
          <mxGeometry x="500" y="430" width="120" height="80" as="geometry" />
        </mxCell>
        <mxCell id="vplq1tkEMpHksFh4a3WS-34" style="rounded=0;orthogonalLoop=1;jettySize=auto;html=1;entryX=0.092;entryY=0.263;entryDx=0;entryDy=0;entryPerimeter=0;endArrow=none;startFill=0;" edge="1" parent="1" source="vplq1tkEMpHksFh4a3WS-15" target="vplq1tkEMpHksFh4a3WS-33">
          <mxGeometry relative="1" as="geometry" />
        </mxCell>
        <mxCell id="vplq1tkEMpHksFh4a3WS-36" value="Espace Utilisateur" style="ellipse;whiteSpace=wrap;html=1;" vertex="1" parent="1">
          <mxGeometry x="610" y="500" width="120" height="80" as="geometry" />
        </mxCell>
        <mxCell id="vplq1tkEMpHksFh4a3WS-37" style="rounded=0;orthogonalLoop=1;jettySize=auto;html=1;entryX=0.933;entryY=0.7;entryDx=0;entryDy=0;entryPerimeter=0;endArrow=none;startFill=0;" edge="1" parent="1" source="vplq1tkEMpHksFh4a3WS-17" target="vplq1tkEMpHksFh4a3WS-36">
          <mxGeometry relative="1" as="geometry" />
        </mxCell>
        <mxCell id="vplq1tkEMpHksFh4a3WS-39" style="rounded=0;orthogonalLoop=1;jettySize=auto;html=1;endArrow=none;startFill=0;" edge="1" parent="1" source="vplq1tkEMpHksFh4a3WS-38" target="vplq1tkEMpHksFh4a3WS-17">
          <mxGeometry relative="1" as="geometry" />
        </mxCell>
        <mxCell id="vplq1tkEMpHksFh4a3WS-38" value="Saisir un voyage" style="ellipse;whiteSpace=wrap;html=1;" vertex="1" parent="1">
          <mxGeometry x="540" y="590" width="120" height="80" as="geometry" />
        </mxCell>
        <mxCell id="vplq1tkEMpHksFh4a3WS-41" style="rounded=0;orthogonalLoop=1;jettySize=auto;html=1;endArrow=none;startFill=0;" edge="1" parent="1" source="vplq1tkEMpHksFh4a3WS-40" target="vplq1tkEMpHksFh4a3WS-17">
          <mxGeometry relative="1" as="geometry" />
        </mxCell>
        <mxCell id="vplq1tkEMpHksFh4a3WS-40" value="Historique des covoiturages" style="ellipse;whiteSpace=wrap;html=1;" vertex="1" parent="1">
          <mxGeometry x="650" y="650" width="120" height="80" as="geometry" />
        </mxCell>
        <mxCell id="vplq1tkEMpHksFh4a3WS-43" style="rounded=0;orthogonalLoop=1;jettySize=auto;html=1;endArrow=none;startFill=0;" edge="1" parent="1" source="vplq1tkEMpHksFh4a3WS-42" target="vplq1tkEMpHksFh4a3WS-17">
          <mxGeometry relative="1" as="geometry" />
        </mxCell>
        <mxCell id="vplq1tkEMpHksFh4a3WS-42" value="Démarrer et arrêter un coivoturage" style="ellipse;whiteSpace=wrap;html=1;" vertex="1" parent="1">
          <mxGeometry x="650" y="750" width="120" height="80" as="geometry" />
        </mxCell>
        <mxCell id="vplq1tkEMpHksFh4a3WS-44" value="Espace employe" style="ellipse;whiteSpace=wrap;html=1;" vertex="1" parent="1">
          <mxGeometry x="190" y="550" width="120" height="80" as="geometry" />
        </mxCell>
        <mxCell id="vplq1tkEMpHksFh4a3WS-47" value="Espace administrateur" style="ellipse;whiteSpace=wrap;html=1;" vertex="1" parent="1">
          <mxGeometry x="180" y="720" width="120" height="80" as="geometry" />
        </mxCell>
        <mxCell id="vplq1tkEMpHksFh4a3WS-49" value="Consulter les statisques" style="ellipse;whiteSpace=wrap;html=1;" vertex="1" parent="1">
          <mxGeometry x="180" y="820" width="120" height="80" as="geometry" />
        </mxCell>
        <mxCell id="vplq1tkEMpHksFh4a3WS-51" value="Gérer les avis" style="ellipse;whiteSpace=wrap;html=1;" vertex="1" parent="1">
          <mxGeometry x="270" y="640" width="120" height="80" as="geometry" />
        </mxCell>
      </root>
    </mxGraphModel>
  </diagram>
</mxfile>
